<svg width="600" height="353" viewBox="0 0 600 353" fill="none" xmlns="http://www.w3.org/2000/svg">
<path d="M642.837 13.7491L655.508 6.04688L718.139 110.743L705.468 118.446L642.837 13.7491Z" fill="#F2EEE5"/>
<path d="M629.161 21.2537L616.824 29.4905L683.803 131.416L696.139 123.179L629.161 21.2537Z" fill="#F2EEE5"/>
<path d="M592.199 46.2949L604.183 37.5445L675.337 136.554L663.353 145.304L592.199 46.2949Z" fill="#F2EEE5"/>
<path d="M580.143 54.3115L568.529 63.5538L643.684 159.512L655.298 150.27L580.143 54.3115Z" fill="#F2EEE5"/>
<path d="M546.048 81.6667L557.287 71.964L636.186 164.819L624.947 174.521L546.048 81.6667Z" fill="#F2EEE5"/>
<path d="M535.316 90.1587L524.455 100.289L606.832 190.023L617.693 179.892L535.316 90.1587Z" fill="#F2EEE5"/>
<path d="M503.764 119.483L514.253 108.962L599.806 195.623L589.318 206.144L503.764 119.483Z" fill="#F2EEE5"/>
<path d="M494.153 128.493L484.022 139.364L572.422 223.071L582.554 212.2L494.153 128.493Z" fill="#F2EEE5"/>
<path d="M464.883 159.61L474.674 148.426L565.611 229.325L555.82 240.508L464.883 159.61Z" fill="#F2EEE5"/>
<path d="M455.995 169.002L446.517 180.457L539.66 258.764L549.138 247.31L455.995 169.002Z" fill="#F2EEE5"/>
<path d="M428.538 201.572L437.73 189.883L532.782 265.823L523.591 277.513L428.538 201.572Z" fill="#F2EEE5"/>
<path d="M420.154 211.425L411.213 223.31L507.861 297.176L516.801 285.291L420.154 211.425Z" fill="#F2EEE5"/>
<path d="M394.12 245.31L402.842 233.261L500.817 305.329L492.094 317.378L394.12 245.31Z" fill="#F2EEE5"/>
<path d="M385.854 255.52L377.312 267.699L476.348 338.277L484.89 326.098L385.854 255.52Z" fill="#F2EEE5"/>
<path d="M360.585 290.369L368.983 278.089L468.843 347.477L460.445 359.758L360.585 290.369Z" fill="#F2EEE5"/>
<path d="M352.361 301.18L344.067 313.533L444.512 382.058L452.806 369.705L352.361 301.18Z" fill="#F2EEE5"/>
<path d="M327.467 336.967L335.692 324.568L436.516 392.526L428.291 404.925L327.467 336.967Z" fill="#F2EEE5"/>
<path d="M318.973 348.357L310.78 360.778L411.779 428.47L419.973 416.049L318.973 348.357Z" fill="#F2EEE5"/>
<path d="M293.156 385.305L301.538 373.012L401.494 442.26L393.113 454.553L293.156 385.305Z" fill="#F2EEE5"/>
<path d="M283.195 397.608L274.245 409.485L370.828 483.436L379.779 471.559L283.195 397.608Z" fill="#F2EEE5"/>
<path d="M-633.332 408.559L-648.109 409.345L-641.719 531.433L-626.942 530.648L-633.332 408.559Z" fill="#F2EEE5"/>
<path d="M-682.925 412.355L-668.258 410.385L-652.237 531.571L-666.905 533.542L-682.925 412.355Z" fill="#F2EEE5"/>
<path d="M-719 418.356L-704.529 415.242L-679.208 534.806L-693.679 537.92L-719 418.356Z" fill="#F2EEE5"/>
<path d="M-617.743 531.356L-614.484 409.142L-599.692 409.543L-602.951 531.757L-617.743 531.356Z" fill="#F2EEE5"/>
<path d="M-582.125 411.508L-594.739 533.103L-580.022 534.654L-567.407 413.059L-582.125 411.508Z" fill="#F2EEE5"/>
<path d="M-572.431 536.507L-551.057 416.163L-536.491 418.791L-557.865 539.136L-572.431 536.507Z" fill="#F2EEE5"/>
<path d="M-521.302 422.839L-550.603 541.475L-536.244 545.079L-506.943 426.442L-521.302 422.839Z" fill="#F2EEE5"/>
<path d="M-529.059 547.915L-492.829 431.238L-478.708 435.694L-514.937 552.37L-529.059 547.915Z" fill="#F2EEE5"/>
<path d="M-465.596 440.94L-507.635 555.619L-493.755 560.789L-451.716 446.11L-465.596 440.94Z" fill="#F2EEE5"/>
<path d="M-486.21 564.604L-439.482 451.784L-425.827 457.53L-472.555 570.351L-486.21 564.604Z" fill="#F2EEE5"/>
<path d="M-414.393 463.391L-464.671 574.65L-451.205 580.833L-400.927 469.574L-414.393 463.391Z" fill="#F2EEE5"/>
<path d="M-442.924 585.587L-390.212 475.478L-376.885 481.961L-429.597 592.069L-442.924 585.587Z" fill="#F2EEE5"/>
<path d="M-366.803 487.81L-420.864 597.251L-407.618 603.899L-353.557 494.458L-366.803 487.81Z" fill="#F2EEE5"/>
<path d="M-398.379 609.333L-344.052 500.025L-330.822 506.706L-385.149 616.014L-398.379 609.333Z" fill="#F2EEE5"/>
<path d="M-321.806 512.125L-375.356 621.822L-362.079 628.407L-308.529 518.71L-321.806 512.125Z" fill="#F2EEE5"/>
<path d="M-351.675 634.255L-299.995 523.651L-286.608 530.007L-338.288 640.611L-351.675 634.255Z" fill="#F2EEE5"/>
<path d="M-278.443 534.609L-327.175 646.565L-313.625 652.558L-264.893 540.602L-278.443 534.609Z" fill="#F2EEE5"/>
<path d="M-301.77 658.3L-257.121 544.628L-243.363 550.118L-288.012 663.791L-301.77 658.3Z" fill="#F2EEE5"/>
<path d="M-235.79 553.853L-275.258 669.457L-261.266 674.311L-221.798 558.707L-235.79 553.853Z" fill="#F2EEE5"/>
<path d="M-247.603 679.377L-214.457 561.773L-200.223 565.849L-233.369 683.453L-247.603 679.377Z" fill="#F2EEE5"/>
<path d="M-192.827 568.555L-218.624 688.015L-204.165 691.188L-178.368 571.727L-192.827 568.555Z" fill="#F2EEE5"/>
<path d="M-188.281 694.923L-170.751 573.949L-156.109 576.104L-173.639 697.079L-188.281 694.923Z" fill="#F2EEE5"/>
<path d="M-148.019 577.801L-156.564 699.755L-141.803 700.806L-133.258 578.852L-148.019 577.801Z" fill="#F2EEE5"/>
<path d="M-124.453 579.965L-109.656 579.855L-108.767 702.11L-123.564 702.219L-124.453 579.965Z" fill="#F2EEE5"/>
<path d="M-84.9274 578.92L-99.6752 580.139L-89.7581 701.988L-75.0103 700.768L-84.9274 578.92Z" fill="#F2EEE5"/>
<path d="M-76.145 578.808L-61.4312 577.225L-48.5638 698.793L-63.2775 700.376L-76.145 578.808Z" fill="#F2EEE5"/>
<path d="M-38.4029 575.009L-53.0667 577.008L-36.8159 698.163L-22.152 696.165L-38.4029 575.009Z" fill="#F2EEE5"/>
<path d="M-30.3773 574.558L-15.7841 572.089L4.29675 692.659L-10.2964 695.129L-30.3773 574.558Z" fill="#F2EEE5"/>
<path d="M6.44971 568.362L-8.04639 571.356L16.3004 691.125L30.7965 688.131L6.44971 568.362Z" fill="#F2EEE5"/>
<path d="M13.8834 567.405L28.251 563.837L57.2644 682.545L42.8967 686.113L13.8834 567.405Z" fill="#F2EEE5"/>
<path d="M49.6152 558.478L35.4127 562.664L69.454 680.008L83.6566 675.822L49.6152 558.478Z" fill="#F2EEE5"/>
<path d="M56.5808 557.017L70.5761 552.173L109.963 667.805L95.9681 672.649L56.5808 557.017Z" fill="#F2EEE5"/>
<path d="M91.1503 544.887L77.4083 550.419L122.392 663.958L136.134 658.426L91.1503 544.887Z" fill="#F2EEE5"/>
<path d="M97.9463 542.731L111.385 536.489L162.144 647.525L148.705 653.768L97.9463 542.731Z" fill="#F2EEE5"/>
<path d="M131.288 526.92L118.202 533.883L174.825 642.001L187.911 635.037L131.288 526.92Z" fill="#F2EEE5"/>
<path d="M138.226 523.932L150.91 516.25L213.377 621.045L200.694 628.727L138.226 523.932Z" fill="#F2EEE5"/>
<path d="M170.277 504.095L158.043 512.485L226.269 613.567L238.503 605.176L170.277 504.095Z" fill="#F2EEE5"/>
<path d="M177.707 499.689L189.451 490.615L263.236 587.648L251.492 596.722L177.707 499.689Z" fill="#F2EEE5"/>
<path d="M208.458 475.589L197.238 485.314L276.314 578.016L287.534 568.291L208.458 475.589Z" fill="#F2EEE5"/>
<path d="M216.643 469.189L227.313 458.854L311.353 547.006L300.683 557.341L216.643 469.189Z" fill="#F2EEE5"/>
<path d="M246.015 440.312L235.914 451.211L324.546 534.669L334.647 523.769L246.015 440.312Z" fill="#F2EEE5"/>
<path d="M255.109 431.349L264.634 419.935L357.451 498.635L347.925 510.05L255.109 431.349Z" fill="#F2EEE5"/>
<path d="M-199.563 0.196423L-207.758 12.6016L612.03 562.873L620.225 550.468L-199.563 0.196423Z" fill="#FF883B"/>
</svg>
