<svg width="124" height="28" viewBox="0 0 124 28" fill="none" xmlns="http://www.w3.org/2000/svg">
<path d="M21.2495 0.0937917L20.1599 0L19.7391 4.88842L20.8287 4.98221L21.2495 0.0937917Z" fill="#754AEA"/>
<path d="M17.3259 0.270059L18.4098 0.124479L19.0518 4.90426L17.9679 5.04984L17.3259 0.270059Z" fill="#754AEA"/>
<path d="M14.6298 1.13261L15.656 0.754638L17.2997 5.21722L16.2735 5.59519L14.6298 1.13261Z" fill="#754AEA"/>
<path d="M12.1987 2.55329L13.118 1.96104L15.6572 5.90258L14.7379 6.49483L12.1987 2.55329Z" fill="#754AEA"/>
<path d="M10.1143 4.42242L10.8827 3.64429L14.2099 6.92992L13.4415 7.70805L10.1143 4.42242Z" fill="#754AEA"/>
<path d="M8.44527 6.67455L9.02592 5.74784L13.0133 8.24619L12.4326 9.1729L8.44527 6.67455Z" fill="#754AEA"/>
<path d="M7.30611 9.24421L7.67098 8.21328L12.1304 9.79158L11.7656 10.8225L7.30611 9.24421Z" fill="#754AEA"/>
<path d="M6.70461 11.9988L6.83637 10.9132L11.6115 11.4927L11.4797 12.5784L6.70461 11.9988Z" fill="#754AEA"/>
<path d="M6.68579 14.8385L6.57812 13.7502L11.4691 13.2664L11.5768 14.3546L6.68579 14.8385Z" fill="#754AEA"/>
<path d="M7.31143 17.6275L6.9695 16.5887L11.7176 15.0258L12.0595 16.0646L7.31143 17.6275Z" fill="#754AEA"/>
<path d="M8.50112 20.261L7.94132 19.3215L12.347 16.6963L12.9068 17.6357L8.50112 20.261Z" fill="#754AEA"/>
<path d="M9.47559 21.8146L10.2264 22.6097L14.074 18.9763L13.3231 18.1812L9.47559 21.8146Z" fill="#754AEA"/>
<path d="M24.0521 0.683836L23.009 0.355169L21.5092 5.11477L22.5523 5.44343L24.0521 0.683836Z" fill="#754AEA"/>
<path d="M26.7098 1.80987L25.7634 1.26191L23.179 5.72563L24.1254 6.27359L26.7098 1.80987Z" fill="#754AEA"/>
<path d="M29.0662 3.52649L28.2617 2.7857L24.6769 6.67861L25.4814 7.4194L29.0662 3.52649Z" fill="#754AEA"/>
<path d="M33.39 13.4351C33.39 20.8221 27.4024 26.8096 20.0155 26.8096C16.5419 26.8096 13.3827 25.4856 11.0069 23.3194L13.1019 21.2244C14.9414 22.8585 17.3632 23.8515 20.0155 23.8515C25.7725 23.8515 30.436 19.188 30.436 13.4309C30.436 10.7787 29.443 8.35684 27.8089 6.51743L29.9039 4.42242C32.0701 6.79816 33.3942 9.95743 33.3942 13.4309L33.39 13.4351Z" fill="#754AEA"/>
<path d="M51.4699 14.1897V16.9887H60.3486L60.3695 21.6228L59.0664 21.6312C57.2563 24.5726 55.5636 25.2011 51.5579 25.2011C44.7198 25.2011 41.8329 21.1158 41.8329 14.5459C41.8329 7.97594 44.4978 3.31246 51.3778 3.31246C56.2172 3.31246 58.9701 5.75524 60.0804 10.8168L63.1014 10.1506C61.9911 4.11276 58.2159 0.425548 51.3359 0.425548C42.8553 0.425548 38.594 6.1072 38.594 14.5459C38.594 23.4245 43.3455 28 50.7157 28C55.572 28 58.2829 27.317 60.3821 24.7067L60.3947 27.5559H63.4157V16.863C63.4157 15.3881 62.2173 14.1897 60.7424 14.1897H51.4699Z" fill="#754AEA"/>
<path d="M72.4492 23.3822H70.2495V27.5555H74.4227V25.3557C74.4227 24.2663 73.5386 23.3822 72.4492 23.3822Z" fill="#754AEA"/>
<path fill-rule="evenodd" clip-rule="evenodd" d="M89.2303 2.85071C89.6993 1.68235 90.8296 0.915777 92.09 0.914929C93.3503 0.91577 94.4848 1.68234 94.9538 2.8549L104.838 27.555H101.419L98.31 19.5186H85.7442L82.6813 27.555H79.3083L89.2303 2.85071ZM86.7205 16.9878H97.3338L96.0474 13.7028C94.803 10.5059 93.4706 6.64267 92.5823 3.75575H91.5599C90.5836 6.68876 89.2512 10.4598 87.9649 13.7028L86.7205 16.9878Z" fill="#754AEA"/>
<path d="M92.09 0.914929L92.092 0.914928H92.0879L92.09 0.914929Z" fill="#754AEA"/>
<path d="M115.929 3.4415V0.914928H108.672V3.4415H110.704V25.0284H108.672V27.555H115.929V25.0284H113.901V3.4415H115.929Z" fill="#754AEA"/>
</svg>
